<svg xmlns="http://www.w3.org/2000/svg" xml:space="preserve" width="16" height="16"><path d="M10.328 27.303V25H8v2.303zm2.33 0h2.328V25h-2.328zM5.672 31.96v2.33H8v-2.33zm-4.199 2.33h1.869v-2.33H1.014v1.27c.046.402.211.766.459 1.06zM5.672 35v-.71h-2.33V35Zm4.656 0v-.71H8V35Zm2.33-.71V35H13c.613 0 1.16-.277 1.527-.71zm0-2.33h-2.33v2.33h2.33zm0-2.33v2.33h2.328v-2.33zm-2.33 0h2.33v-2.327h-2.33zM8 29.63v2.33h2.328v-2.33zm-2.328 0H8v-2.327H5.672Zm-2.33 0v2.33h2.33v-2.33zm0-2.327H1.014v2.328h2.328z" style="fill:#e0e0e0;fill-opacity:1" transform="translate(0 -20)"/><path d="M3.342 25v2.303h2.33V25ZM3 21a2 2 0 0 0-2 2v1h14v-1a2 2 0 0 0-2-2zm9 1h1v1h-1z" style="fill:#e0e0e0;fill-opacity:1" transform="translate(0 -20)"/></svg>
