<svg xmlns="http://www.w3.org/2000/svg" xml:space="preserve" width="16" height="16"><path fill="#e0e0e0" d="M6.149 1a2 2 0 0 0-2 2v1H15V3a2 2 0 0 0-2-2ZM12 2h1v1h-1ZM4.149 5v4.851a2 2 0 0 0 2 2H13a2 2 0 0 0 2-2V5Z"/><path d="M13 13H5a2.015 2.015 0 0 1-.78-.156 1.986 1.986 0 0 1-.173-.086 2.015 2.015 0 0 1-.318-.215 2.02 2.02 0 0 1-.387-.424 2.014 2.014 0 0 1-.1-.166 1.987 1.987 0 0 1-.086-.174 1.977 1.977 0 0 1-.146-.574A2.034 2.034 0 0 1 3 11V7H1v6a2 2 0 0 0 2 2h8a2 2 0 0 0 2-2zM3 3a2 2 0 0 0-2 2v1h2V5Z" style="fill:#e0e0e0;fill-opacity:1"/></svg>
